<svg width="27" height="18" viewBox="0 0 27 18" fill="none" xmlns="http://www.w3.org/2000/svg">
<mask id="path-1-inside-1" fill="white">
<path fill-rule="evenodd" clip-rule="evenodd" d="M6.50157 14.2351C7.10249 14.2351 7.68957 14.4156 8.18673 14.7531L11.1773 16.7836C13.1692 18.136 15.8625 16.7092 15.8625 14.3016V3.00511C15.8625 0.59751 13.1692 -0.829269 11.1773 0.523133L7.91724 2.7366C7.42007 3.07416 6.833 3.25463 6.23207 3.25463H3C1.34315 3.25463 0 4.59777 0 6.25463V11.2351C0 12.8919 1.34315 14.2351 3 14.2351H6.50157Z"/>
</mask>
<path d="M8.18673 14.7531L7.34415 15.9941L8.18673 14.7531ZM12.0199 15.5426L9.02932 13.5121L7.34415 15.9941L10.3347 18.0246L12.0199 15.5426ZM14.3625 3.00511V14.3016H17.3625V3.00511H14.3625ZM8.75982 3.97759L12.0199 1.76412L10.3347 -0.717856L7.07465 1.49562L8.75982 3.97759ZM6.23207 1.75463H3V4.75463H6.23207V1.75463ZM-1.5 6.25463V11.2351H1.5V6.25463H-1.5ZM3 15.7351H6.50157V12.7351H3V15.7351ZM-1.5 11.2351C-1.5 13.7204 0.514721 15.7351 3 15.7351V12.7351C2.17157 12.7351 1.5 12.0635 1.5 11.2351H-1.5ZM3 1.75463C0.514723 1.75463 -1.5 3.76934 -1.5 6.25463H1.5C1.5 5.4262 2.17157 4.75463 3 4.75463V1.75463ZM7.07465 1.49562C6.82607 1.66439 6.53253 1.75463 6.23207 1.75463V4.75463C7.13346 4.75463 8.01408 4.48392 8.75982 3.97759L7.07465 1.49562ZM17.3625 3.00511C17.3625 -0.606292 13.3225 -2.74646 10.3347 -0.717856L12.0199 1.76412C13.0158 1.08792 14.3625 1.80131 14.3625 3.00511H17.3625ZM9.02932 13.5121C8.28357 13.0058 7.40296 12.7351 6.50157 12.7351V15.7351C6.80203 15.7351 7.09557 15.8253 7.34415 15.9941L9.02932 13.5121ZM10.3347 18.0246C13.3225 20.0532 17.3625 17.913 17.3625 14.3016H14.3625C14.3625 15.5054 13.0158 16.2188 12.0199 15.5426L10.3347 18.0246Z" fill="white" mask="url(#path-1-inside-1)"/>
<path d="M19.7686 5.75L25.208 11.2316" stroke="white" stroke-width="1.5" stroke-linecap="round"/>
<path d="M19.7686 11.2314L25.208 5.74988" stroke="white" stroke-width="1.5" stroke-linecap="round"/>
</svg>
