<svg width="25" height="20" viewBox="0 0 25 20" fill="none" xmlns="http://www.w3.org/2000/svg">
<mask id="path-1-inside-1" fill="white">
<path fill-rule="evenodd" clip-rule="evenodd" d="M6 0C2.68629 0 0 2.68629 0 6V13.1667C0 16.4804 2.68629 19.1667 6 19.1667H19C22.3137 19.1667 25 16.4804 25 13.1667V6C25 2.68629 22.3137 0 19 0H6ZM4.25049 9.58325C4.25049 7.09797 6.26521 5.08325 8.75049 5.08325H10.0005C10.4147 5.08325 10.7505 5.41904 10.7505 5.83325C10.7505 6.24747 10.4147 6.58325 10.0005 6.58325H8.75049C7.09363 6.58325 5.75049 7.9264 5.75049 9.58325C5.75049 11.2401 7.09363 12.5833 8.75049 12.5833H10.0005C10.4147 12.5833 10.7505 12.919 10.7505 13.3333C10.7505 13.7475 10.4147 14.0833 10.0005 14.0833H8.75049C6.26521 14.0833 4.25049 12.0685 4.25049 9.58325ZM12.5835 9.58325C12.5835 7.09797 14.5982 5.08325 17.0835 5.08325H18.3335C18.7477 5.08325 19.0835 5.41904 19.0835 5.83325C19.0835 6.24747 18.7477 6.58325 18.3335 6.58325H17.0835C15.4266 6.58325 14.0835 7.9264 14.0835 9.58325C14.0835 11.2401 15.4266 12.5833 17.0835 12.5833H18.3335C18.7477 12.5833 19.0835 12.919 19.0835 13.3333C19.0835 13.7475 18.7477 14.0833 18.3335 14.0833H17.0835C14.5982 14.0833 12.5835 12.0685 12.5835 9.58325Z"/>
</mask>
<path fill-rule="evenodd" clip-rule="evenodd" d="M6 0C2.68629 0 0 2.68629 0 6V13.1667C0 16.4804 2.68629 19.1667 6 19.1667H19C22.3137 19.1667 25 16.4804 25 13.1667V6C25 2.68629 22.3137 0 19 0H6ZM4.25049 9.58325C4.25049 7.09797 6.26521 5.08325 8.75049 5.08325H10.0005C10.4147 5.08325 10.7505 5.41904 10.7505 5.83325C10.7505 6.24747 10.4147 6.58325 10.0005 6.58325H8.75049C7.09363 6.58325 5.75049 7.9264 5.75049 9.58325C5.75049 11.2401 7.09363 12.5833 8.75049 12.5833H10.0005C10.4147 12.5833 10.7505 12.919 10.7505 13.3333C10.7505 13.7475 10.4147 14.0833 10.0005 14.0833H8.75049C6.26521 14.0833 4.25049 12.0685 4.25049 9.58325ZM12.5835 9.58325C12.5835 7.09797 14.5982 5.08325 17.0835 5.08325H18.3335C18.7477 5.08325 19.0835 5.41904 19.0835 5.83325C19.0835 6.24747 18.7477 6.58325 18.3335 6.58325H17.0835C15.4266 6.58325 14.0835 7.9264 14.0835 9.58325C14.0835 11.2401 15.4266 12.5833 17.0835 12.5833H18.3335C18.7477 12.5833 19.0835 12.919 19.0835 13.3333C19.0835 13.7475 18.7477 14.0833 18.3335 14.0833H17.0835C14.5982 14.0833 12.5835 12.0685 12.5835 9.58325Z" fill="white"/>
<path d="M1.5 6C1.5 3.51472 3.51472 1.5 6 1.5V-1.5C1.85786 -1.5 -1.5 1.85786 -1.5 6H1.5ZM1.5 13.1667V6H-1.5V13.1667H1.5ZM6 17.6667C3.51472 17.6667 1.5 15.6519 1.5 13.1667H-1.5C-1.5 17.3088 1.85787 20.6667 6 20.6667V17.6667ZM19 17.6667H6V20.6667H19V17.6667ZM23.5 13.1667C23.5 15.6519 21.4853 17.6667 19 17.6667V20.6667C23.1421 20.6667 26.5 17.3088 26.5 13.1667H23.5ZM23.5 6V13.1667H26.5V6H23.5ZM19 1.5C21.4853 1.5 23.5 3.51472 23.5 6H26.5C26.5 1.85786 23.1421 -1.5 19 -1.5V1.5ZM6 1.5H19V-1.5H6V1.5ZM8.75049 3.58325C5.43678 3.58325 2.75049 6.26954 2.75049 9.58325H5.75049C5.75049 7.9264 7.09363 6.58325 8.75049 6.58325V3.58325ZM10.0005 3.58325H8.75049V6.58325H10.0005V3.58325ZM12.2505 5.83325C12.2505 4.59061 11.2431 3.58325 10.0005 3.58325V6.58325C9.58627 6.58325 9.25049 6.24747 9.25049 5.83325H12.2505ZM10.0005 8.08325C11.2431 8.08325 12.2505 7.07589 12.2505 5.83325H9.25049C9.25049 5.41904 9.58627 5.08325 10.0005 5.08325V8.08325ZM8.75049 8.08325H10.0005V5.08325H8.75049V8.08325ZM7.25049 9.58325C7.25049 8.75482 7.92206 8.08325 8.75049 8.08325V5.08325C6.26521 5.08325 4.25049 7.09797 4.25049 9.58325H7.25049ZM8.75049 11.0833C7.92206 11.0833 7.25049 10.4117 7.25049 9.58325H4.25049C4.25049 12.0685 6.26521 14.0833 8.75049 14.0833V11.0833ZM10.0005 11.0833H8.75049V14.0833H10.0005V11.0833ZM12.2505 13.3333C12.2505 12.0906 11.2431 11.0833 10.0005 11.0833V14.0833C9.58627 14.0833 9.25049 13.7475 9.25049 13.3333H12.2505ZM10.0005 15.5833C11.2431 15.5833 12.2505 14.5759 12.2505 13.3333H9.25049C9.25049 12.919 9.58627 12.5833 10.0005 12.5833V15.5833ZM8.75049 15.5833H10.0005V12.5833H8.75049V15.5833ZM2.75049 9.58325C2.75049 12.897 5.43678 15.5833 8.75049 15.5833V12.5833C7.09363 12.5833 5.75049 11.2401 5.75049 9.58325H2.75049ZM17.0835 3.58325C13.7698 3.58325 11.0835 6.26954 11.0835 9.58325H14.0835C14.0835 7.9264 15.4266 6.58325 17.0835 6.58325V3.58325ZM18.3335 3.58325H17.0835V6.58325H18.3335V3.58325ZM20.5835 5.83325C20.5835 4.59061 19.5761 3.58325 18.3335 3.58325V6.58325C17.9193 6.58325 17.5835 6.24747 17.5835 5.83325H20.5835ZM18.3335 8.08325C19.5761 8.08325 20.5835 7.07589 20.5835 5.83325H17.5835C17.5835 5.41904 17.9193 5.08325 18.3335 5.08325V8.08325ZM17.0835 8.08325H18.3335V5.08325H17.0835V8.08325ZM15.5835 9.58325C15.5835 8.75482 16.2551 8.08325 17.0835 8.08325V5.08325C14.5982 5.08325 12.5835 7.09797 12.5835 9.58325H15.5835ZM17.0835 11.0833C16.2551 11.0833 15.5835 10.4117 15.5835 9.58325H12.5835C12.5835 12.0685 14.5982 14.0833 17.0835 14.0833V11.0833ZM18.3335 11.0833H17.0835V14.0833H18.3335V11.0833ZM20.5835 13.3333C20.5835 12.0906 19.5761 11.0833 18.3335 11.0833V14.0833C17.9193 14.0833 17.5835 13.7475 17.5835 13.3333H20.5835ZM18.3335 15.5833C19.5761 15.5833 20.5835 14.5759 20.5835 13.3333H17.5835C17.5835 12.919 17.9193 12.5833 18.3335 12.5833V15.5833ZM17.0835 15.5833H18.3335V12.5833H17.0835V15.5833ZM11.0835 9.58325C11.0835 12.897 13.7698 15.5833 17.0835 15.5833V12.5833C15.4266 12.5833 14.0835 11.2401 14.0835 9.58325H11.0835Z" fill="white" mask="url(#path-1-inside-1)"/>
</svg>
